<?xml version="1.0" encoding="UTF-8"?>
<svg id="Layer_1" xmlns="http://www.w3.org/2000/svg" version="1.1" viewBox="0 0 200 200">
  <defs>
    <style>
      .st0 {
        fill: #fff;
        stroke: #fff;
        stroke-miterlimit: 10;
        stroke-width: .9px;
      }

      .st1 {
        fill: #009be0;
      }

      .st2 {
        fill: #383838;
      }
    </style>
  </defs>
  <path class="st0" d="M109.9,190l62.8-35.9c6.1-3.5,9.9-10,9.9-17l.3-72.3c0-7-3.7-13.6-9.8-17.1L110.6,11.2c-6.1-3.5-13.6-3.6-19.7,0L28.2,47.1c-6.1,3.5-9.9,10-9.9,17l-.3,72.3c0,7,3.7,13.6,9.8,17.1l62.5,36.4c6.1,3.5,13.6,3.6,19.7,0Z"/>
  <path class="st1" d="M158.9,58l-50.2-29.3c-4.9-2.9-10.9-2.9-15.9,0l-50.4,28.9c-4.9,2.8-8,8-8,13.7l-.2,58.1c0,5.7,3,10.9,7.9,13.8l50.2,29.3c4.9,2.9,10.9,2.9,15.9,0l50.4-28.9c4.9-2.8,8-8,8-13.7l.2-58.1c0-5.7-3-10.9-7.9-13.8Z"/>
  <path class="st2" d="M92.8,47.6l-39.2,22.4c-2,1.2-2,4.1,0,5.2l38.7,22.5c4.9,2.9,10.9,2.9,15.9,0l39.2-22.4c2-1.2,2-4.1,0-5.2l-38.7-22.5c-4.9-2.9-10.9-2.9-15.9,0Z"/>
</svg>
